<mxfile host="app.diagrams.net" agent="Mozilla/5.0 (Windows NT 10.0; Win64; x64) AppleWebKit/537.36 (KHTML, like Gecko) Chrome/139.0.0.0 Safari/537.36" version="28.1.1">
  <diagram name="PÃ¡gina-1" id="EWK2WozdrzInm_T4GYxE">
    <mxGraphModel dx="1426" dy="749" grid="1" gridSize="10" guides="1" tooltips="1" connect="1" arrows="1" fold="1" page="1" pageScale="1" pageWidth="827" pageHeight="1169" math="0" shadow="0">
      <root>
        <mxCell id="0" />
        <mxCell id="1" parent="0" />
        <mxCell id="i5R5vTPkuuCQY1B-ZFBA-11" value="&lt;span class=&quot;_awsc-region-menu-item-region_19wjc_1363&quot; style=&quot;pointer-events: none; display: flex; justify-content: space-between; width: 284px; padding-left: 12px;&quot;&gt;&lt;span class=&quot;_awsc-region-menu-item-region__code_19wjc_1363&quot; style=&quot;padding-left: 10px; pointer-events: none;&quot;&gt;us-east-1&lt;/span&gt;&lt;/span&gt;" style="html=1;align=left;verticalAlign=top;rounded=1;absoluteArcSize=1;arcSize=20;dashed=1;whiteSpace=wrap;" vertex="1" parent="1">
          <mxGeometry x="70" y="60" width="580" height="410" as="geometry" />
        </mxCell>
        <mxCell id="i5R5vTPkuuCQY1B-ZFBA-7" style="edgeStyle=orthogonalEdgeStyle;rounded=0;orthogonalLoop=1;jettySize=auto;html=1;" edge="1" parent="1" source="i5R5vTPkuuCQY1B-ZFBA-1" target="i5R5vTPkuuCQY1B-ZFBA-6">
          <mxGeometry relative="1" as="geometry" />
        </mxCell>
        <mxCell id="i5R5vTPkuuCQY1B-ZFBA-1" value="App Server Front y Back" style="outlineConnect=0;dashed=0;verticalLabelPosition=bottom;verticalAlign=top;align=center;html=1;shape=mxgraph.aws3.ec2;fillColor=#F58534;gradientColor=none;" vertex="1" parent="1">
          <mxGeometry x="120" y="220" width="70" height="60" as="geometry" />
        </mxCell>
        <mxCell id="i5R5vTPkuuCQY1B-ZFBA-3" value="capacitanet-resource" style="sketch=0;outlineConnect=0;fontColor=#232F3E;gradientColor=none;fillColor=#7AA116;strokeColor=none;dashed=0;verticalLabelPosition=bottom;verticalAlign=top;align=center;html=1;fontSize=12;fontStyle=0;aspect=fixed;pointerEvents=1;shape=mxgraph.aws4.bucket;" vertex="1" parent="1">
          <mxGeometry x="472" y="80" width="75" height="78" as="geometry" />
        </mxCell>
        <mxCell id="i5R5vTPkuuCQY1B-ZFBA-4" value="capacitanet_cursos" style="outlineConnect=0;dashed=0;verticalLabelPosition=bottom;verticalAlign=top;align=center;html=1;shape=mxgraph.aws3.dynamo_db;fillColor=#2E73B8;gradientColor=none;" vertex="1" parent="1">
          <mxGeometry x="473.5" y="350" width="72" height="81" as="geometry" />
        </mxCell>
        <mxCell id="i5R5vTPkuuCQY1B-ZFBA-5" value="capacitanet_user" style="outlineConnect=0;dashed=0;verticalLabelPosition=bottom;verticalAlign=top;align=center;html=1;shape=mxgraph.aws3.dynamo_db;fillColor=#2E73B8;gradientColor=none;" vertex="1" parent="1">
          <mxGeometry x="473.5" y="209.5" width="72" height="81" as="geometry" />
        </mxCell>
        <mxCell id="i5R5vTPkuuCQY1B-ZFBA-8" style="edgeStyle=orthogonalEdgeStyle;rounded=0;orthogonalLoop=1;jettySize=auto;html=1;" edge="1" parent="1" source="i5R5vTPkuuCQY1B-ZFBA-6" target="i5R5vTPkuuCQY1B-ZFBA-3">
          <mxGeometry relative="1" as="geometry">
            <Array as="points">
              <mxPoint x="301" y="119" />
            </Array>
          </mxGeometry>
        </mxCell>
        <mxCell id="i5R5vTPkuuCQY1B-ZFBA-9" style="edgeStyle=orthogonalEdgeStyle;rounded=0;orthogonalLoop=1;jettySize=auto;html=1;" edge="1" parent="1" source="i5R5vTPkuuCQY1B-ZFBA-6" target="i5R5vTPkuuCQY1B-ZFBA-5">
          <mxGeometry relative="1" as="geometry">
            <Array as="points">
              <mxPoint x="390" y="250" />
              <mxPoint x="390" y="250" />
            </Array>
          </mxGeometry>
        </mxCell>
        <mxCell id="i5R5vTPkuuCQY1B-ZFBA-10" style="edgeStyle=orthogonalEdgeStyle;rounded=0;orthogonalLoop=1;jettySize=auto;html=1;" edge="1" parent="1" source="i5R5vTPkuuCQY1B-ZFBA-6" target="i5R5vTPkuuCQY1B-ZFBA-4">
          <mxGeometry relative="1" as="geometry">
            <Array as="points">
              <mxPoint x="301" y="390" />
              <mxPoint x="436" y="390" />
              <mxPoint x="436" y="391" />
            </Array>
          </mxGeometry>
        </mxCell>
        <mxCell id="i5R5vTPkuuCQY1B-ZFBA-6" value="IAM&lt;div&gt;&lt;br&gt;&lt;/div&gt;" style="outlineConnect=0;dashed=0;verticalLabelPosition=bottom;verticalAlign=top;align=center;html=1;shape=mxgraph.aws3.iam;fillColor=#759C3E;gradientColor=none;" vertex="1" parent="1">
          <mxGeometry x="280" y="209.5" width="42" height="81" as="geometry" />
        </mxCell>
      </root>
    </mxGraphModel>
  </diagram>
</mxfile>
